<?xml version="1.0" encoding="UTF-8" standalone="no"?>
<!-- Generator: Adobe Illustrator 27.7.0, SVG Export Plug-In . SVG Version: 6.00 Build 0)  -->
<svg version="1.1" id="Warstwa_1" x="0px" y="0px" viewBox="0 0 158 39" style="enable-background:new 0 0 158 39;" xml:space="preserve" sodipodi:docname="widget_template.svg" inkscape:version="1.3 (1:1.3+202307231459+0e150ed6c4)" xmlns:inkscape="http://www.inkscape.org/namespaces/inkscape" xmlns:sodipodi="http://sodipodi.sourceforge.net/DTD/sodipodi-0.dtd" xmlns="http://www.w3.org/2000/svg" xmlns:svg="http://www.w3.org/2000/svg"><defs id="defs28"/><sodipodi:namedview id="namedview28" pagecolor="#ffffff" bordercolor="#000000" borderopacity="0.25" inkscape:showpageshadow="2" inkscape:pageopacity="0.0" inkscape:pagecheckerboard="0" inkscape:deskcolor="#d1d1d1" inkscape:zoom="4.9683544" inkscape:cx="78.899364" inkscape:cy="19.523567" inkscape:window-width="1920" inkscape:window-height="1016" inkscape:window-x="0" inkscape:window-y="0" inkscape:window-maximized="1" inkscape:current-layer="Warstwa_1"/>
<style type="text/css" id="style1">
	.st0{fill:#6457FD;}
	.st1{enable-background:new    ;}
	.st2{fill:#ffffff;}
	.st3{fill:#42ADE2;}
	.st4{fill:#FFDD67;}
	.st5{fill:#EBA352;}
</style>
<path id="Path_37" class="st0" d="M6.3,0h145.4c3.4-0.1,6.2,2.6,6.3,6v27c-0.1,3.4-2.9,6.1-6.3,6H6.3c-3.4,0.1-6.2-2.6-6.3-6V6  C0.1,2.6,2.9-0.1,6.3,0z"/>
<path style="font-weight:600;font-size:16.0515px;line-height:0;font-family:Pelikan;-inkscape-font-specification:'Pelikan Semi-Bold';letter-spacing:0px;fill:#ffffff;stroke-width:3.13123" d="m 36.025516,24.963514 h 2.471931 v -3.627639 h 2.857167 c 2.45588,0 3.980772,-1.589098 3.980772,-3.804205 0,-2.215107 -1.524892,-3.804206 -3.980772,-3.804206 h -5.329098 z m 2.471931,-5.601973 v -3.659742 h 2.327468 c 1.027296,0 1.861974,0.545751 1.861974,1.829871 0,1.268068 -0.818627,1.829871 -1.861974,1.829871 z m 8.378853,5.601973 h 2.391673 v -3.996823 c 0,-1.669356 1.155708,-2.712704 2.311416,-2.760858 0.288927,0 0.465494,0.01605 0.706267,0.04815 v -2.375622 c -0.995194,0 -2.279314,0.449442 -3.113992,2.263262 l -0.09631,-2.263262 H 46.8763 Z m 6.019283,0 h 7.59236 V 23.053386 H 56.50717 l 3.996824,-7.175021 h -7.335536 v 1.910129 h 3.691845 z m 10.513722,2.985579 c 1.781717,0 2.760858,-1.07545 3.691845,-3.370815 l 3.499227,-8.699913 h -2.584291 l -2.215107,6.372446 -2.263262,-6.372446 h -2.632446 l 3.563433,8.924634 -0.06421,0.160515 c -0.353133,0.706266 -0.706266,1.043348 -1.332274,1.027296 -0.5297,0 -0.979142,-0.192618 -1.364378,-0.43339 v 2.006437 c 0.481545,0.240773 1.043348,0.385236 1.701459,0.385236 z m 13.820328,-2.728755 c 2.134849,0 3.659742,-1.861974 3.659742,-4.879656 0,-2.873218 -1.524893,-4.719141 -3.659742,-4.719141 -1.476738,0 -2.45588,0.947039 -3.001631,2.054592 v -4.590729 h -2.391673 v 11.87811 h 2.295364 l 0.09631,-1.813819 c 0.545751,1.139656 1.508841,2.070643 3.001631,2.070643 z m -3.09794,-4.799398 c 0,-1.990386 1.043348,-2.825064 2.13485,-2.825064 1.107553,0 2.086695,0.834678 2.086695,2.825064 0,1.974334 -0.979142,2.825064 -2.086695,2.825064 -1.091502,0 -2.086695,-0.85073 -2.13485,-2.825064 z m 8.378864,4.542574 h 2.391674 v -9.085149 h -2.391674 z m 0,-9.919827 h 2.391674 v -1.733562 h -2.391674 z m 4.654917,0 h 2.407725 v -1.701459 h -2.407725 z m -1.348326,12.712788 c 0.288927,0.112361 0.75442,0.192618 1.316223,0.192618 1.219914,0 2.439828,-0.513648 2.439828,-2.600343 v -9.470385 h -2.407725 v 9.293819 c 0,0.786523 -0.256824,0.96309 -0.690215,0.96309 -0.208669,0 -0.417339,-0.0321 -0.658111,-0.112361 z m 9.630856,-0.06421 h 2.391676 v -4.542574 c 0.54575,1.139656 1.57304,2.070643 3.06583,2.070643 2.07065,0 3.59554,-1.878025 3.59554,-4.879656 0,-2.873218 -1.50884,-4.719141 -3.56343,-4.719141 -1.49279,0 -2.55219,0.947039 -3.09794,2.054592 l -0.0963,-1.797768 h -2.295366 z m 2.295366,-7.287381 c 0,-1.990386 1.02729,-2.809012 2.13485,-2.809012 1.10755,0 2.08669,0.818626 2.08669,2.809012 0,1.990386 -0.97914,2.841116 -2.08669,2.841116 -1.10756,0 -2.1188,-0.85073 -2.13485,-2.841116 z m 8.37886,4.558626 h 2.39168 v -9.085149 h -2.39168 z m 0,-9.919827 h 2.39168 v -1.733562 h -2.39168 z m 7.23921,10.176651 c 1.38043,0 2.27931,-0.626008 2.80901,-1.589098 l 0.12841,1.332274 c -0.64206,0.417339 -1.10755,1.027296 -1.10755,1.717511 0,1.043347 0.85073,1.508841 1.91013,1.508841 0.5939,0 1.0915,-0.112361 1.47673,-0.288927 v -1.524893 c -0.33708,0.160515 -0.70626,0.272876 -1.04334,0.272876 -0.33708,0 -0.62601,-0.128412 -0.62601,-0.513648 0,-0.577854 0.85073,-1.091502 1.47674,-1.17176 h 0.14446 v -5.264892 c 0,-3.226351 -2.19906,-4.077081 -4.10918,-4.077081 -1.71751,0 -3.00163,0.577854 -3.91657,1.396481 v 2.407725 c 0.85073,-1.043348 2.13485,-1.765665 3.56343,-1.765665 1.0273,0 2.10275,0.545751 2.10275,2.166952 v 0.882833 c -0.51365,-0.64206 -1.41253,-1.107554 -2.6806,-1.107554 -1.86198,0 -3.33871,1.011245 -3.33871,2.841116 0,1.829871 1.26807,2.776909 3.2103,2.776909 z m -0.72232,-2.921373 c 0,-0.834678 0.86678,-1.219914 1.82987,-1.219914 0.97914,0 1.79777,0.385236 1.79777,1.219914 -0.0161,0.818627 -0.89889,1.219914 -1.87803,1.219914 -0.96309,0 -1.74961,-0.401287 -1.74961,-1.219914 z m 11.15576,2.921373 c 1.02729,0 1.60515,-0.208669 2.183,-0.497596 v -1.92618 c -0.49759,0.304978 -0.88283,0.465493 -1.36438,0.465493 -0.77047,0 -1.07545,-0.497596 -1.07545,-1.348326 v -4.141287 h 2.42378 v -1.894077 h -2.45588 V 14.04849 l -2.32747,0.01605 v 1.813819 h -1.30017 v 1.894077 h 1.26807 v 4.654935 c 0,1.958283 1.15571,2.792961 2.6485,2.792961 z m 3.83627,-0.256824 h 2.39167 v -4.638883 l 3.6758,4.638883 h 3.06583 l -4.01287,-4.992016 3.86841,-4.093133 h -3.01768 l -3.57949,3.884463 V 13.0854 h -2.39167 z m 14.23765,3.226352 c 0.57786,0 1.0915,-0.112361 1.47674,-0.288927 v -1.524893 c -0.33708,0.160515 -0.72232,0.272876 -1.0594,0.272876 -0.33708,0 -0.64206,-0.128412 -0.64206,-0.513648 0,-0.513648 0.5618,-0.898884 1.18781,-1.155708 0.89889,-0.272876 1.557,-0.706266 1.94223,-1.027296 l 0.0161,-2.150901 c -0.86679,0.818626 -1.92618,1.39648 -3.30661,1.39648 -1.47674,0 -2.39168,-0.96309 -2.39168,-2.423776 h 5.77854 c 0.0803,-3.402918 -1.41253,-5.152532 -4.04498,-5.152532 -2.50403,0 -4.23759,2.006438 -4.23759,4.81545 0,2.88927 1.6212,4.606781 4.14129,4.767296 -0.44945,0.401287 -0.77048,0.914935 -0.77048,1.476738 0,1.043347 0.83468,1.508841 1.91013,1.508841 z m -2.77691,-8.780171 c 0.0642,-1.011244 0.73837,-1.894077 1.82987,-1.894077 1.07545,0 1.68541,0.834678 1.76567,1.894077 z" id="text28"/>
<g id="g28">
	<g class="st1" id="g27">
		<g id="g26">
			<path class="st3" d="M18,23.5c-0.1,0-0.2-0.1-0.3-0.1c-0.1,0-0.2-0.1-0.3-0.1c-0.2-0.1-0.4-0.2-0.6-0.4c-0.4-0.3-0.7-0.7-1-1.1     c-0.2-0.4-0.4-0.9-0.4-1.4c0-0.2,0-0.5,0-0.7c0-0.1,0-0.2,0.1-0.4c0-0.1,0.1-0.2,0.1-0.3l0,0.4c0,0.1,0,0.2,0,0.3     c0,0.2,0.1,0.4,0.1,0.7c0.1,0.4,0.3,0.8,0.5,1.2c0.2,0.4,0.5,0.7,0.8,1c0.2,0.2,0.3,0.3,0.5,0.5c0.1,0.1,0.2,0.1,0.3,0.2L18,23.5     z" id="path12"/>
			<path class="st3" d="M18,24.4c-0.1,0-0.2,0.1-0.3,0.1c-0.1,0-0.2,0-0.3,0.1c-0.2,0-0.4,0-0.6,0c-0.4,0-0.8-0.1-1.1-0.3     c-0.3-0.2-0.6-0.5-0.9-0.8c-0.1-0.2-0.2-0.3-0.3-0.5c0-0.1-0.1-0.2-0.1-0.3c0-0.1,0-0.2,0-0.3c0.1,0.1,0.1,0.1,0.2,0.2     c0.1,0.1,0.1,0.1,0.2,0.2c0.1,0.1,0.2,0.2,0.4,0.4c0.2,0.2,0.5,0.4,0.8,0.6c0.3,0.2,0.6,0.3,0.9,0.4c0.2,0,0.3,0.1,0.5,0.1     c0.1,0,0.2,0,0.3,0.1C17.8,24.4,17.9,24.4,18,24.4z" id="path13"/>
			<path class="st3" d="M23.6,12.3c0.1,0,0.2,0.1,0.4,0.1c0.1,0,0.2,0.1,0.3,0.2c0.2,0.1,0.4,0.3,0.6,0.4c0.4,0.3,0.7,0.7,0.9,1.1     c0.2,0.4,0.4,0.9,0.4,1.4c0,0.2,0,0.5-0.1,0.7c0,0.1-0.1,0.2-0.1,0.3c0,0.1-0.1,0.2-0.1,0.3l0-0.4c0-0.1,0-0.2,0-0.3     c0-0.2,0-0.5-0.1-0.7c-0.1-0.4-0.2-0.9-0.4-1.2c-0.2-0.4-0.5-0.7-0.8-1.1c-0.2-0.2-0.3-0.3-0.5-0.5c-0.1-0.1-0.2-0.2-0.3-0.2     L23.6,12.3z" id="path14"/>
			<path class="st3" d="M25.8,12.2c0.1,0,0.2,0.1,0.3,0.1c0.1,0,0.2,0.1,0.2,0.1c0.2,0.1,0.3,0.2,0.4,0.3c0.3,0.2,0.5,0.6,0.6,0.9     c0.1,0.3,0.2,0.7,0.1,1.1c0,0.2-0.1,0.4-0.1,0.5c0,0.1-0.1,0.2-0.1,0.2c0,0.1-0.1,0.2-0.1,0.2c0-0.1,0-0.2,0-0.3     c0-0.1,0-0.2,0-0.3c0-0.2,0-0.3,0-0.5c0-0.3-0.1-0.6-0.2-0.9c-0.1-0.3-0.3-0.6-0.4-0.8c-0.1-0.1-0.2-0.3-0.3-0.4     c-0.1-0.1-0.1-0.1-0.2-0.2C25.9,12.3,25.8,12.2,25.8,12.2z" id="path15"/>
			<path class="st4" d="M16.5,15.9c-0.5,0.2-0.7,0.8-0.4,1.3l3.2,6.6L21,23l-3.2-6.6C17.6,15.9,17,15.7,16.5,15.9z" id="path16"/>
			<path class="st4" d="M24.8,21.1l1.9-0.9l-3.6-7.5c-0.2-0.5-0.9-0.7-1.4-0.5l0,0c-0.5,0.2-0.7,0.9-0.5,1.4L24.8,21.1z" id="path17"/>
			<path class="st5" d="M21.7,12.3L21.7,12.3c-0.1,0-0.1,0.1-0.2,0.1c0.5-0.1,1,0.1,1.2,0.5l3.6,7.5l0.3-0.2l-3.6-7.5     C22.8,12.2,22.2,12,21.7,12.3z" id="path18"/>
			<path class="st4" d="M21,23l1.9-0.9l-3.7-7.7c-0.3-0.5-0.9-0.8-1.4-0.5l0,0c-0.5,0.3-0.7,0.9-0.5,1.4L21,23z" id="path19"/>
			<path class="st5" d="M17.8,13.9L17.8,13.9c-0.1,0-0.1,0.1-0.2,0.1c0.5-0.1,1,0.1,1.2,0.6l2.3,4.8l0.6,0.3l-2.5-5.3     C18.9,13.8,18.3,13.6,17.8,13.9z" id="path20"/>
			<path class="st4" d="M22.6,21.4l1.9-0.9l-3.7-7.7c-0.3-0.5-0.9-0.8-1.4-0.5l0,0c-0.5,0.3-0.7,0.9-0.5,1.4L22.6,21.4z" id="path21"/>
			<path class="st5" d="M19.4,12.3L19.4,12.3c-0.1,0-0.1,0.1-0.2,0.1c0.5-0.1,1,0.1,1.2,0.6l2.6,5.4l0.6,0.3l-2.8-5.9     C20.6,12.3,19.9,12.1,19.4,12.3z" id="path22"/>
			<path class="st5" d="M16.5,15.9c-0.1,0-0.1,0.1-0.2,0.1c0.4-0.1,0.9,0.1,1.1,0.5l1.9,3.9l0.6,0.3l-2.1-4.4     C17.6,15.9,17,15.7,16.5,15.9z" id="path23"/>
			<path class="st4" d="M29.2,15.2c-0.7-0.5-1.8,0.1-2.3,1.9c-0.4,1.3-0.4,1.6-1.2,2l-0.4-0.9c0,0-7.1,3.4-6.8,4     c0,0,0.9,2.6,2.3,3.9c2.1,1.8,7.2-0.1,7.4-4.9C28.2,18.3,29.9,15.7,29.2,15.2z" id="path24"/>
			<path class="st5" d="M29.2,15.2c-0.1-0.1-0.3-0.2-0.4-0.2c0,0,0.1,0,0.1,0.1c0.7,0.6,0,1.9-0.5,3.1c-0.3,1-0.6,1.9-0.6,2.9     c0.2,4.1-4,6.1-6.5,5.4c2.4,1,7-0.9,6.8-5.2c0-0.9,0.2-1.9,0.6-2.9C29.2,17.1,29.9,15.7,29.2,15.2z" id="path25"/>
			<path class="st5" d="M25.9,18.9c-1.5,0.2-3.8,2.4-2.2,4.8c-1.2-2.4,0.8-4.1,2-4.7C25.8,19,25.9,18.9,25.9,18.9z" id="path26"/>
		</g>
	</g>
</g>
</svg>